999
dxflib 2.2.0.0
  0
SECTION
  2
HEADER
  9
$ACADVER
  1
AC1015
  9
$HANDSEED
  5
FFFF
  9
$DIMASZ
 40
2.5
  9
$PLIMMIN
 10
0.0
 20
0.0
  9
$DIMEXE
 40
1.25
  9
$DIMGAP
 40
0.625
  9
$PLIMMAX
 10
210.0
 20
297.0
  9
$INSUNITS
 70
4
  9
$DIMSTYLE
  2
Standard
  9
$MEASUREMENT
 70
1
  9
$DIMEXO
 40
0.625
  9
$DIMTXT
 40
2.5
  0
ENDSEC
  0
SECTION
  2
TABLES
  0
TABLE
  2
VPORT
  5
8
100
AcDbSymbolTable
 70
1
  0
VPORT
  5
30
100
AcDbSymbolTableRecord
100
AcDbViewportTableRecord
  2
*Active
 70
0
 10
0.0
 20
0.0
 11
1.0
 21
1.0
 12
286.3055555555554861
 22
148.5
 13
0.0
 23
0.0
 14
10.0
 24
10.0
 15
10.0
 25
10.0
 16
0.0
 26
0.0
 36
1.0
 17
0.0
 27
0.0
 37
0.0
 40
297.0
 41
1.92798353909465
 42
50.0
 43
0.0
 44
0.0
 50
0.0
 51
0.0
 71
0
 72
100
 73
1
 74
3
 75
1
 76
1
 77
0
 78
0
281
0
 65
1
110
0.0
120
0.0
130
0.0
111
1.0
121
0.0
131
0.0
112
0.0
122
1.0
132
0.0
 79
0
146
0.0
  0
ENDTAB
  0
TABLE
  2
LTYPE
  5
5
100
AcDbSymbolTable
 70
21
  0
LTYPE
  5
14
100
AcDbSymbolTableRecord
100
AcDbLinetypeTableRecord
  2
ByBlock
 70
0
  3

 72
65
 73
0
 40
0.0
  0
LTYPE
  5
15
100
AcDbSymbolTableRecord
100
AcDbLinetypeTableRecord
  2
ByLayer
 70
0
  3

 72
65
 73
0
 40
0.0
  0
LTYPE
  5
16
100
AcDbSymbolTableRecord
100
AcDbLinetypeTableRecord
  2
CONTINUOUS
 70
0
  3
Solid line
 72
65
 73
0
 40
0.0
  0
LTYPE
  5
31
100
AcDbSymbolTableRecord
100
AcDbLinetypeTableRecord
  2
DOT
 70
0
  3
Dot . . . . . . . . . . . . . . . . . . . . . .
 72
65
 73
2
 40
6.3499999999999996
 49
0.0
 74
0
 49
-6.3499999999999996
 74
0
  0
LTYPE
  5
32
100
AcDbSymbolTableRecord
100
AcDbLinetypeTableRecord
  2
DOT2
 70
0
  3
Dot (.5x) .....................................
 72
65
 73
2
 40
3.1749999999999998
 49
0.0
 74
0
 49
-3.1749999999999998
 74
0
  0
LTYPE
  5
33
100
AcDbSymbolTableRecord
100
AcDbLinetypeTableRecord
  2
DOTX2
 70
0
  3
Dot (2x) .  .  .  .  .  .  .  .  .  .  .  .  .
 72
65
 73
2
 40
12.6999999999999993
 49
0.0
 74
0
 49
-12.6999999999999993
 74
0
  0
LTYPE
  5
34
100
AcDbSymbolTableRecord
100
AcDbLinetypeTableRecord
  2
DASHED
 70
0
  3
Dashed __ __ __ __ __ __ __ __ __ __ __ __ __ _
 72
65
 73
2
 40
19.0500000000000007
 49
12.6999999999999993
 74
0
 49
-6.3499999999999996
 74
0
  0
LTYPE
  5
35
100
AcDbSymbolTableRecord
100
AcDbLinetypeTableRecord
  2
DASHED2
 70
0
  3
Dashed (.5x) _ _ _ _ _ _ _ _ _ _ _ _ _ _ _ _ _
 72
65
 73
2
 40
9.5250000000000004
 49
6.3499999999999996
 74
0
 49
-3.1749999999999998
 74
0
  0
LTYPE
  5
36
100
AcDbSymbolTableRecord
100
AcDbLinetypeTableRecord
  2
DASHEDX2
 70
0
  3
Dashed (2x) ____  ____  ____  ____  ____  ___
 72
65
 73
2
 40
38.1000000000000014
 49
25.3999999999999986
 74
0
 49
-12.6999999999999993
 74
0
  0
LTYPE
  5
37
100
AcDbSymbolTableRecord
100
AcDbLinetypeTableRecord
  2
DASHDOT
 70
0
  3
Dash dot __ . __ . __ . __ . __ . __ . __ . __
 72
65
 73
4
 40
25.3999999999999986
 49
12.6999999999999993
 74
0
 49
-6.3499999999999996
 74
0
 49
0.0
 74
0
 49
-6.3499999999999996
 74
0
  0
LTYPE
  5
38
100
AcDbSymbolTableRecord
100
AcDbLinetypeTableRecord
  2
DASHDOT2
 70
0
  3
Dash dot (.5x) _._._._._._._._._._._._._._._.
 72
65
 73
4
 40
12.6999999999999993
 49
6.3499999999999996
 74
0
 49
-3.1749999999999998
 74
0
 49
0.0
 74
0
 49
-3.1749999999999998
 74
0
  0
LTYPE
  5
39
100
AcDbSymbolTableRecord
100
AcDbLinetypeTableRecord
  2
DASHDOTX2
 70
0
  3
Dash dot (2x) ____  .  ____  .  ____  .  ___
 72
65
 73
4
 40
50.7999999999999972
 49
25.3999999999999986
 74
0
 49
-12.6999999999999993
 74
0
 49
0.0
 74
0
 49
-12.6999999999999993
 74
0
  0
LTYPE
  5
3A
100
AcDbSymbolTableRecord
100
AcDbLinetypeTableRecord
  2
DIVIDE
 70
0
  3
Divide ____ . . ____ . . ____ . . ____ . . ____
 72
65
 73
6
 40
31.75
 49
12.6999999999999993
 74
0
 49
-6.3499999999999996
 74
0
 49
0.0
 74
0
 49
-6.3499999999999996
 74
0
 49
0.0
 74
0
 49
-6.3499999999999996
 74
0
  0
LTYPE
  5
3B
100
AcDbSymbolTableRecord
100
AcDbLinetypeTableRecord
  2
DIVIDE2
 70
0
  3
Divide (.5x) __..__..__..__..__..__..__..__.._
 72
65
 73
6
 40
15.875
 49
6.3499999999999996
 74
0
 49
-3.1749999999999998
 74
0
 49
0.0
 74
0
 49
-3.1749999999999998
 74
0
 49
0.0
 74
0
 49
-3.1749999999999998
 74
0
  0
LTYPE
  5
3C
100
AcDbSymbolTableRecord
100
AcDbLinetypeTableRecord
  2
DIVIDEX2
 70
0
  3
Divide (2x) ________  .  .  ________  .  .  _
 72
65
 73
6
 40
63.5
 49
25.3999999999999986
 74
0
 49
-12.6999999999999993
 74
0
 49
0.0
 74
0
 49
-12.6999999999999993
 74
0
 49
0.0
 74
0
 49
-12.6999999999999993
 74
0
  0
LTYPE
  5
3D
100
AcDbSymbolTableRecord
100
AcDbLinetypeTableRecord
  2
CENTER
 70
0
  3
Center ____ _ ____ _ ____ _ ____ _ ____ _ ____
 72
65
 73
4
 40
50.7999999999999972
 49
31.75
 74
0
 49
-6.3499999999999996
 74
0
 49
6.3499999999999996
 74
0
 49
-6.3499999999999996
 74
0
  0
LTYPE
  5
3E
100
AcDbSymbolTableRecord
100
AcDbLinetypeTableRecord
  2
CENTER2
 70
0
  3
Center (.5x) ___ _ ___ _ ___ _ ___ _ ___ _ ___
 72
65
 73
4
 40
28.5749999999999993
 49
19.0500000000000007
 74
0
 49
-3.1749999999999998
 74
0
 49
3.1749999999999998
 74
0
 49
-3.1749999999999998
 74
0
  0
LTYPE
  5
3F
100
AcDbSymbolTableRecord
100
AcDbLinetypeTableRecord
  2
CENTERX2
 70
0
  3
Center (2x) ________  __  ________  __  _____
 72
65
 73
4
 40
101.5999999999999943
 49
63.5
 74
0
 49
-12.6999999999999993
 74
0
 49
12.6999999999999993
 74
0
 49
-12.6999999999999993
 74
0
  0
LTYPE
  5
40
100
AcDbSymbolTableRecord
100
AcDbLinetypeTableRecord
  2
BORDER
 70
0
  3
Border __ __ . __ __ . __ __ . __ __ . __ __ .
 72
65
 73
6
 40
44.4500000000000028
 49
12.6999999999999993
 74
0
 49
-6.3499999999999996
 74
0
 49
12.6999999999999993
 74
0
 49
-6.3499999999999996
 74
0
 49
0.0
 74
0
 49
-6.3499999999999996
 74
0
  0
LTYPE
  5
41
100
AcDbSymbolTableRecord
100
AcDbLinetypeTableRecord
  2
BORDER2
 70
0
  3
Border (.5x) __.__.__.__.__.__.__.__.__.__.__.
 72
65
 73
6
 40
22.2250000000000014
 49
6.3499999999999996
 74
0
 49
-3.1749999999999998
 74
0
 49
6.3499999999999996
 74
0
 49
-3.1749999999999998
 74
0
 49
0.0
 74
0
 49
-3.1749999999999998
 74
0
  0
LTYPE
  5
42
100
AcDbSymbolTableRecord
100
AcDbLinetypeTableRecord
  2
BORDERX2
 70
0
  3
Border (2x) ____  ____  .  ____  ____  .  ___
 72
65
 73
6
 40
88.9000000000000057
 49
25.3999999999999986
 74
0
 49
-12.6999999999999993
 74
0
 49
25.3999999999999986
 74
0
 49
-12.6999999999999993
 74
0
 49
0.0
 74
0
 49
-12.6999999999999993
 74
0
  0
ENDTAB
  0
TABLE
  2
LAYER
  5
2
100
AcDbSymbolTable
 70
2
  0
LAYER
  5
10
100
AcDbSymbolTableRecord
100
AcDbLayerTableRecord
  2
0
 70
0
 62
7
  6
CONTINUOUS
290
1
370
0
390
F
  0
LAYER
  5
43
100
AcDbSymbolTableRecord
100
AcDbLayerTableRecord
  2
Layer_1
 70
0
 62
7
  6
CONTINUOUS
290
1
390
F
  0
ENDTAB
  0
TABLE
  2
STYLE
  5
3
100
AcDbSymbolTable
 70
1
  0
STYLE
  5
11
100
AcDbSymbolTableRecord
100
AcDbTextStyleTableRecord
  2
Standard
 70
0
 40
0.0
 41
0.75
 50
0.0
 71
0
 42
2.5
  3
txt
  4

  0
ENDTAB
  0
TABLE
  2
VIEW
  5
6
100
AcDbSymbolTable
 70
0
  0
ENDTAB
  0
TABLE
  2
UCS
  5
7
100
AcDbSymbolTable
 70
0
  0
ENDTAB
  0
TABLE
  2
APPID
  5
9
100
AcDbSymbolTable
 70
1
  0
APPID
  5
12
100
AcDbSymbolTableRecord
100
AcDbRegAppTableRecord
  2
ACAD
 70
0
  0
ENDTAB
  0
TABLE
  2
DIMSTYLE
  5
A
100
AcDbSymbolTable
 70
1
100
AcDbDimStyleTable
 71
0
  0
DIMSTYLE
105
27
100
AcDbSymbolTableRecord
100
AcDbDimStyleTableRecord
  2
Standard
 41
2.5
 42
0.625
 43
3.75
 44
1.25
 70
0
 73
0
 74
0
 77
1
 78
8
140
2.5
141
2.5
143
0.03937007874016
147
0.625
171
3
172
1
271
2
272
2
274
3
278
44
283
0
284
8
340
11
  0
ENDTAB
  0
TABLE
  2
BLOCK_RECORD
  5
1
100
AcDbSymbolTable
 70
1
  0
BLOCK_RECORD
  5
1F
100
AcDbSymbolTableRecord
100
AcDbBlockTableRecord
  2
*Model_Space
340
22
  0
BLOCK_RECORD
  5
1B
100
AcDbSymbolTableRecord
100
AcDbBlockTableRecord
  2
*Paper_Space
340
1E
  0
BLOCK_RECORD
  5
23
100
AcDbSymbolTableRecord
100
AcDbBlockTableRecord
  2
*Paper_Space0
340
26
  0
ENDTAB
  0
ENDSEC
  0
SECTION
  2
BLOCKS
  0
BLOCK
  5
20
100
AcDbEntity
  8
0
100
AcDbBlockBegin
  2
*Model_Space
 70
0
 10
0.0
 20
0.0
 30
0.0
  3
*Model_Space
  1

  0
ENDBLK
  5
21
100
AcDbEntity
  8
0
100
AcDbBlockEnd
  0
BLOCK
  5
1C
100
AcDbEntity
 67
1
  8
0
100
AcDbBlockBegin
  2
*Paper_Space
 70
0
 10
0.0
 20
0.0
 30
0.0
  3
*Paper_Space
  1

  0
ENDBLK
  5
1D
100
AcDbEntity
 67
1
  8
0
100
AcDbBlockEnd
  0
BLOCK
  5
24
100
AcDbEntity
  8
0
100
AcDbBlockBegin
  2
*Paper_Space0
 70
0
 10
0.0
 20
0.0
 30
0.0
  3
*Paper_Space0
  1

  0
ENDBLK
  5
25
100
AcDbEntity
  8
0
100
AcDbBlockEnd
  0
ENDSEC
  0
SECTION
  2
ENTITIES
  0
LWPOLYLINE
  5
44
  8
Layer_1
 62
256
370
-1
  6
ByLayer
100
AcDbEntity
100
AcDbPolyline
 90
242
 70
0
 10
-120.6277039999999943
 20
3.303693
 10
-120.5747369999999989
 20
-4.8876359999999996
 10
-119.9739330000000024
 20
-12.9897290000000005
 10
-118.8382349999999974
 20
-20.9791920000000012
 10
-117.1805849999999936
 20
-28.8326360000000008
 10
-115.0139240000000029
 20
-36.5266659999999987
 10
-112.3511950000000041
 20
-44.0378929999999968
 10
-109.2053400000000067
 20
-51.3429239999999965
 10
-105.5892999999999944
 20
-58.4183670000000035
 10
-101.5160180000000025
 20
-65.240831
 10
-96.9984350000000006
 20
-71.7869239999999991
 10
-92.0494939999999957
 20
-78.0332539999999995
 10
-86.6821369999999973
 20
-83.9564299999999974
 10
-80.9093060000000008
 20
-89.5330589999999944
 10
-74.7439420000000041
 20
-94.7397490000000033
 10
-68.1989879999999999
 20
-99.5531100000000038
 10
-61.2873859999999979
 20
-103.9497499999999945
 10
-54.0942950000000025
 20
-107.8689509999999956
 10
-46.7140720000000016
 20
-111.2655919999999981
 10
-39.173448999999998
 20
-114.1396730000000019
 10
-31.4991589999999988
 20
-116.4911929999999955
 10
-23.7179360000000017
 20
-118.3201540000000023
 10
-15.8565129999999996
 20
-119.6265539999999987
 10
-7.9416229999999999
 20
-120.4103939999999966
 10
-0.0
 20
-120.6716739999999959
 10
7.9416229999999999
 20
-120.4103939999999966
 10
15.8565129999999996
 20
-119.6265539999999987
 10
23.7179360000000017
 20
-118.3201540000000023
 10
31.4991589999999988
 20
-116.4911929999999955
 10
39.173448999999998
 20
-114.1396730000000019
 10
46.7140720000000016
 20
-111.2655919999999981
 10
54.0942950000000025
 20
-107.8689509999999956
 10
61.2873859999999979
 20
-103.9497499999999945
 10
68.1989879999999999
 20
-99.5531100000000038
 10
74.7439420000000041
 20
-94.7397490000000033
 10
80.9093060000000008
 20
-89.5330589999999944
 10
86.6821369999999973
 20
-83.9564299999999974
 10
92.0494939999999957
 20
-78.0332539999999995
 10
96.9984350000000006
 20
-71.7869239999999991
 10
101.5160180000000025
 20
-65.240831
 10
105.5892999999999944
 20
-58.4183670000000035
 10
109.2053400000000067
 20
-51.3429239999999965
 10
112.3511950000000041
 20
-44.0378929999999968
 10
115.0139240000000029
 20
-36.5266659999999987
 10
117.1805849999999936
 20
-28.8326360000000008
 10
118.8382349999999974
 20
-20.9791920000000012
 10
119.9739330000000024
 20
-12.9897290000000005
 10
120.5747369999999989
 20
-4.8876359999999996
 10
120.6277039999999943
 20
3.303693
 10
128.4346280000000036
 20
0.822329
 10
136.3260040000000117
 20
-1.1104019999999999
 10
144.2755830000000117
 20
-2.4995810000000001
 10
152.2571149999999989
 20
-3.3502879999999999
 10
160.2443529999999896
 20
-3.6676009999999999
 10
168.2110470000000078
 20
-3.4565999999999999
 10
176.1309469999999919
 20
-2.7223660000000001
 10
183.9778070000000127
 20
-1.4699770000000001
 10
191.7253750000000139
 20
0.295485
 10
199.3474030000000141
 20
2.5689419999999998
 10
206.8176440000000014
 20
5.3453140000000001
 10
214.1098460000000046
 20
8.6195219999999999
 10
221.1977620000000115
 20
12.3864839999999994
 10
228.0551429999999868
 20
16.6411219999999993
 10
234.6557400000000086
 20
21.3783570000000012
 10
240.9733029999999872
 20
26.5931069999999998
 10
246.9237630000000081
 20
32.2231390000000033
 10
252.4350389999999891
 20
38.192653
 10
257.4988710000000083
 20
44.4762210000000024
 10
262.106995999999981
 20
51.0484160000000031
 10
266.2511519999999905
 20
57.8838110000000015
 10
269.9230779999999754
 20
64.9569780000000065
 10
273.1145119999999906
 20
72.2424890000000062
 10
275.8171919999999773
 20
79.7149179999999973
 10
278.0228549999999927
 20
87.3488370000000032
 10
279.7232409999999732
 20
95.118819000000002
 10
280.9100869999999759
 20
102.9994360000000029
 10
281.5751319999999964
 20
110.9652609999999981
 10
281.7101139999999759
 20
118.9908659999999969
 10
281.3067699999999718
 20
127.0508250000000032
 10
280.3568389999999795
 20
135.1197090000000003
 10
278.8520599999999945
 20
143.1720919999999921
 10
276.8061900000000151
 20
151.1042830000000095
 10
274.2506660000000238
 20
158.8165170000000046
 10
271.2037359999999921
 20
166.2892569999999921
 10
267.6836500000000001
 20
173.5029629999999941
 10
263.7086600000000089
 20
180.438098999999994
 10
259.2970139999999901
 20
187.0751239999999882
 10
254.4669619999999952
 20
193.3945019999999886
 10
249.236756000000014
 20
199.3766929999999888
 10
243.6246449999999868
 20
205.0021600000000035
 10
237.6488779999999963
 20
210.2513639999999953
 10
231.3277070000000037
 20
215.1047670000000096
 10
224.679380000000009
 20
219.5428310000000067
 10
217.7221490000000017
 20
223.5460160000000087
 10
210.4742630000000077
 20
227.0947859999999991
 10
202.9539719999999932
 20
230.1696019999999976
 10
195.1795270000000073
 20
232.7509239999999977
 10
199.9515429999999867
 20
239.4089740000000006
 10
204.2278929999999946
 20
246.3168489999999906
 10
208.005297000000013
 20
253.4480179999999905
 10
211.2804769999999905
 20
260.7759480000000281
 10
214.0501529999999946
 20
268.2741080000000125
 10
216.3110450000000071
 20
275.9159660000000258
 10
218.0598740000000078
 20
283.6749889999999823
 10
219.2933610000000044
 20
291.5246450000000209
 10
220.0082260000000076
 20
299.4384029999999939
 10
220.2011899999999969
 20
307.3897309999999834
 10
219.8689740000000086
 20
315.3520950000000198
 10
219.0082989999999938
 20
323.2989650000000097
 10
217.6158839999999941
 20
331.2038089999999784
 10
215.6884509999999864
 20
339.040093000000013
 10
213.2227200000000096
 20
346.7812870000000203
 10
210.2154130000000123
 20
354.4008580000000279
 10
206.6997360000000015
 20
361.7996269999999868
 10
202.7255040000000008
 20
368.8856269999999995
 10
198.314345000000003
 20
375.6431430000000091
 10
193.4878870000000006
 20
382.0564620000000104
 10
188.2677569999999889
 20
388.1098709999999983
 10
182.6755850000000123
 20
393.7876549999999725
 10
176.7329990000000066
 20
399.0740999999999872
 10
170.4616259999999954
 20
403.9534939999999779
 10
163.8830949999999973
 20
408.4101210000000037
 10
157.0190330000000074
 20
412.4282680000000028
 10
149.8910700000000134
 20
415.9922209999999723
 10
142.5208340000000078
 20
419.0862670000000207
 10
134.9299519999999859
 20
421.6946909999999775
 10
127.1400529999999947
 20
423.8017800000000079
 10
119.1727640000000008
 20
425.3918199999999956
 10
111.0497150000000062
 20
426.4490969999999948
 10
102.8737639999999942
 20
426.9546550000000025
 10
94.7494990000000001
 20
426.907558999999992
 10
86.7011389999999977
 20
426.3191259999999829
 10
78.7529040000000009
 20
425.2006749999999897
 10
70.9290150000000068
 20
423.5635229999999751
 10
63.2536920000000009
 20
421.418988000000013
 10
55.7511539999999997
 20
418.7783870000000093
 10
48.4456229999999977
 20
415.6530379999999809
 10
41.3613179999999971
 20
412.0542580000000044
 10
34.5224589999999978
 20
407.9933659999999804
 10
27.9532659999999993
 20
403.4816779999999881
 10
21.6779590000000013
 20
398.5305129999999849
 10
15.7207589999999993
 20
393.1511879999999906
 10
10.1058859999999999
 20
387.355021000000022
 10
4.8575600000000003
 20
381.1533299999999826
 10
0.0
 20
374.5574310000000082
 10
-4.8575600000000003
 20
381.1533299999999826
 10
-10.1058859999999999
 20
387.355021000000022
 10
-15.7207589999999993
 20
393.1511879999999906
 10
-21.6779590000000013
 20
398.5305129999999849
 10
-27.9532659999999993
 20
403.4816779999999881
 10
-34.5224589999999978
 20
407.9933659999999804
 10
-41.3613179999999971
 20
412.0542580000000044
 10
-48.4456229999999977
 20
415.6530379999999809
 10
-55.7511539999999997
 20
418.7783870000000093
 10
-63.2536920000000009
 20
421.418988000000013
 10
-70.9290150000000068
 20
423.5635229999999751
 10
-78.7529040000000009
 20
425.2006749999999897
 10
-86.7011389999999977
 20
426.3191259999999829
 10
-94.7494990000000001
 20
426.907558999999992
 10
-102.8737639999999942
 20
426.9546550000000025
 10
-111.0497150000000062
 20
426.4490969999999948
 10
-119.1727640000000008
 20
425.3918199999999956
 10
-127.1400529999999947
 20
423.8017800000000079
 10
-134.9299519999999859
 20
421.6946909999999775
 10
-142.5208340000000078
 20
419.0862670000000207
 10
-149.8910700000000134
 20
415.9922209999999723
 10
-157.0190330000000074
 20
412.4282680000000028
 10
-163.8830949999999973
 20
408.4101210000000037
 10
-170.4616259999999954
 20
403.9534939999999779
 10
-176.7329990000000066
 20
399.0740999999999872
 10
-182.6755850000000123
 20
393.7876549999999725
 10
-188.2677569999999889
 20
388.1098709999999983
 10
-193.4878870000000006
 20
382.0564620000000104
 10
-198.314345000000003
 20
375.6431430000000091
 10
-202.7255040000000008
 20
368.8856269999999995
 10
-206.6997360000000015
 20
361.7996269999999868
 10
-210.2154130000000123
 20
354.4008580000000279
 10
-213.2227200000000096
 20
346.7812870000000203
 10
-215.6884509999999864
 20
339.040093000000013
 10
-217.6158839999999941
 20
331.2038089999999784
 10
-219.0082989999999938
 20
323.2989650000000097
 10
-219.8689740000000086
 20
315.3520950000000198
 10
-220.2011899999999969
 20
307.3897309999999834
 10
-220.0082260000000076
 20
299.4384029999999939
 10
-219.2933610000000044
 20
291.5246450000000209
 10
-218.0598740000000078
 20
283.6749889999999823
 10
-216.3110450000000071
 20
275.9159660000000258
 10
-214.0501529999999946
 20
268.2741080000000125
 10
-211.2804769999999905
 20
260.7759480000000281
 10
-208.005297000000013
 20
253.4480179999999905
 10
-204.2278929999999946
 20
246.3168489999999906
 10
-199.9515429999999867
 20
239.4089740000000006
 10
-195.1795270000000073
 20
232.7509239999999977
 10
-202.9539719999999932
 20
230.1696019999999976
 10
-210.4742630000000077
 20
227.0947859999999991
 10
-217.7221490000000017
 20
223.5460160000000087
 10
-224.679380000000009
 20
219.5428310000000067
 10
-231.3277070000000037
 20
215.1047670000000096
 10
-237.6488779999999963
 20
210.2513639999999953
 10
-243.6246449999999868
 20
205.0021600000000035
 10
-249.236756000000014
 20
199.3766929999999888
 10
-254.4669619999999952
 20
193.3945019999999886
 10
-259.2970139999999901
 20
187.0751239999999882
 10
-263.7086600000000089
 20
180.438098999999994
 10
-267.6836500000000001
 20
173.5029629999999941
 10
-271.2037359999999921
 20
166.2892569999999921
 10
-274.2506660000000238
 20
158.8165170000000046
 10
-276.8061900000000151
 20
151.1042830000000095
 10
-278.8520599999999945
 20
143.1720919999999921
 10
-280.3568389999999795
 20
135.1197090000000003
 10
-281.3067699999999718
 20
127.0508250000000032
 10
-281.7101139999999759
 20
118.9908659999999969
 10
-281.5751319999999964
 20
110.9652609999999981
 10
-280.9100869999999759
 20
102.9994360000000029
 10
-279.7232409999999732
 20
95.118819000000002
 10
-278.0228549999999927
 20
87.3488370000000032
 10
-275.8171919999999773
 20
79.7149179999999973
 10
-273.1145119999999906
 20
72.2424890000000062
 10
-269.9230779999999754
 20
64.9569780000000065
 10
-266.2511519999999905
 20
57.8838110000000015
 10
-262.106995999999981
 20
51.0484160000000031
 10
-257.4988710000000083
 20
44.4762210000000024
 10
-252.4350389999999891
 20
38.192653
 10
-246.9237630000000081
 20
32.2231390000000033
 10
-240.9733029999999872
 20
26.5931069999999998
 10
-234.6557400000000086
 20
21.3783570000000012
 10
-228.0551429999999868
 20
16.6411219999999993
 10
-221.1977620000000115
 20
12.3864839999999994
 10
-214.1098460000000046
 20
8.6195219999999999
 10
-206.8176440000000014
 20
5.3453140000000001
 10
-199.3474030000000141
 20
2.5689419999999998
 10
-191.7253750000000139
 20
0.295485
 10
-183.9778070000000127
 20
-1.4699770000000001
 10
-176.1309469999999919
 20
-2.7223660000000001
 10
-168.2110470000000078
 20
-3.4565999999999999
 10
-160.2443529999999896
 20
-3.6676009999999999
 10
-152.2571149999999989
 20
-3.3502879999999999
 10
-144.2755830000000117
 20
-2.4995810000000001
 10
-136.3260040000000117
 20
-1.1104019999999999
 10
-128.4346280000000036
 20
0.822329
 10
-120.6277039999999943
 20
3.303693
 10
-120.6277039999999943
 20
3.303693
  0
ENDSEC
  0
SECTION
  2
OBJECTS
  0
DICTIONARY
  5
C
100
AcDbDictionary
280
0
281
1
  3
ACAD_GROUP
350
D
  3
ACAD_LAYOUT
350
1A
  3
ACAD_MLINESTYLE
350
17
  3
ACAD_PLOTSETTINGS
350
19
  3
ACAD_PLOTSTYLENAME
350
E
  3
AcDbVariableDictionary
350
45
  0
DICTIONARY
  5
D
100
AcDbDictionary
280
0
281
1
  0
ACDBDICTIONARYWDFLT
  5
E
100
AcDbDictionary
281
1
  3
Normal
350
F
100
AcDbDictionaryWithDefault
340
F
  0
ACDBPLACEHOLDER
  5
F
  0
DICTIONARY
  5
17
100
AcDbDictionary
280
0
281
1
  3
Standard
350
18
  0
MLINESTYLE
  5
18
100
AcDbMlineStyle
  2
STANDARD
 70
0
  3

 62
256
 51
90.0
 52
90.0
 71
2
 49
0.5
 62
256
  6
BYLAYER
 49
-0.5
 62
256
  6
BYLAYER
  0
DICTIONARY
  5
19
100
AcDbDictionary
280
0
281
1
  0
DICTIONARY
  5
1A
100
AcDbDictionary
281
1
  3
Layout1
350
1E
  3
Layout2
350
26
  3
Model
350
22
  0
LAYOUT
  5
1E
100
AcDbPlotSettings
  1

  2
C:\Program Files\AutoCAD 2002\plotters\DWF ePlot (optimized for plotting).pc3
  4

  6

 40
0.0
 41
0.0
 42
0.0
 43
0.0
 44
0.0
 45
0.0
 46
0.0
 47
0.0
 48
0.0
 49
0.0
140
0.0
141
0.0
142
1.0
143
1.0
 70
688
 72
0
 73
0
 74
5
  7

 75
16
147
1.0
148
0.0
149
0.0
100
AcDbLayout
  1
Layout1
 70
1
 71
1
 10
0.0
 20
0.0
 11
420.0
 21
297.0
 12
0.0
 22
0.0
 32
0.0
 14
100000000000000000000.0
 24
100000000000000000000.0
 34
100000000000000000000.0
 15
-100000000000000000000.0
 25
-100000000000000000000.0
 35
-100000000000000000000.0
146
0.0
 13
0.0
 23
0.0
 33
0.0
 16
1.0
 26
0.0
 36
0.0
 17
0.0
 27
1.0
 37
0.0
 76
0
330
1B
  0
LAYOUT
  5
22
100
AcDbPlotSettings
  1

  2
C:\Program Files\AutoCAD 2002\plotters\DWF ePlot (optimized for plotting).pc3
  4

  6

 40
0.0
 41
0.0
 42
0.0
 43
0.0
 44
0.0
 45
0.0
 46
0.0
 47
0.0
 48
0.0
 49
0.0
140
0.0
141
0.0
142
1.0
143
1.0
 70
1712
 72
0
 73
0
 74
0
  7

 75
0
147
1.0
148
0.0
149
0.0
100
AcDbLayout
  1
Model
 70
1
 71
0
 10
0.0
 20
0.0
 11
12.0
 21
9.0
 12
0.0
 22
0.0
 32
0.0
 14
0.0
 24
0.0
 34
0.0
 15
0.0
 25
0.0
 35
0.0
146
0.0
 13
0.0
 23
0.0
 33
0.0
 16
1.0
 26
0.0
 36
0.0
 17
0.0
 27
1.0
 37
0.0
 76
0
330
1F
  0
LAYOUT
  5
26
100
AcDbPlotSettings
  1

  2
C:\Program Files\AutoCAD 2002\plotters\DWF ePlot (optimized for plotting).pc3
  4

  6

 40
0.0
 41
0.0
 42
0.0
 43
0.0
 44
0.0
 45
0.0
 46
0.0
 47
0.0
 48
0.0
 49
0.0
140
0.0
141
0.0
142
1.0
143
1.0
 70
688
 72
0
 73
0
 74
5
  7

 75
16
147
1.0
148
0.0
149
0.0
100
AcDbLayout
  1
Layout2
 70
1
 71
2
 10
0.0
 20
0.0
 11
12.0
 21
9.0
 12
0.0
 22
0.0
 32
0.0
 14
0.0
 24
0.0
 34
0.0
 15
0.0
 25
0.0
 35
0.0
146
0.0
 13
0.0
 23
0.0
 33
0.0
 16
1.0
 26
0.0
 36
0.0
 17
0.0
 27
1.0
 37
0.0
 76
0
330
23
  0
DICTIONARY
  5
45
100
AcDbDictionary
281
1
  3
DIMASSOC
350
47
  3
HIDETEXT
350
46
  0
DICTIONARYVAR
  5
46
100
DictionaryVariables
280
0
  1
2
  0
DICTIONARYVAR
  5
47
100
DictionaryVariables
280
0
  1
1
  0
ENDSEC
  0
EOF
